<svg width="10" height="16" viewBox="0 0 10 16" fill="none" xmlns="http://www.w3.org/2000/svg">
<mask id="path-1-inside-1_508_8832" fill="white">
<rect x="0.5" y="0.5" width="9" height="15" rx="1"/>
</mask>
<rect x="0.5" y="0.5" width="9" height="15" rx="1" stroke="#F2F2F2" stroke-width="3" mask="url(#path-1-inside-1_508_8832)"/>
<path d="M3.49998 2.16216C3.49998 2.0726 3.58393 2 3.68748 2C3.79104 2 3.87498 2.0726 3.87498 2.16216C3.87498 2.25172 3.79104 2.32432 3.68748 2.32432C3.58393 2.32432 3.49998 2.25172 3.49998 2.16216Z" fill="#F2F2F2"/>
<path d="M4.24998 2.16216C4.24998 2.0726 4.33393 2 4.43748 2H6.31248C6.41604 2 6.49998 2.0726 6.49998 2.16216C6.49998 2.25172 6.41604 2.32432 6.31248 2.32432H4.43748C4.33393 2.32432 4.24998 2.25172 4.24998 2.16216Z" fill="#F2F2F2"/>
<path d="M2.75 13.6757C2.64645 13.6757 2.5625 13.7483 2.5625 13.8378C2.5625 13.9274 2.64645 14 2.75 14H7.24998C7.35354 14 7.43748 13.9274 7.43748 13.8378C7.43748 13.7483 7.35354 13.6757 7.24998 13.6757H2.75Z" fill="#F2F2F2"/>
</svg>
