<svg width="18" height="12" viewBox="0 0 18 12" fill="none" xmlns="http://www.w3.org/2000/svg">
<path d="M16.25 11.25H1.75C1.61193 11.25 1.5 11.1381 1.5 11V2.54839C1.5 2.41032 1.61193 2.29839 1.75 2.29839H4.99824C5.66902 2.29839 6.28079 1.91496 6.5732 1.31126L6.77676 0.891018L6.10705 0.566626L6.77676 0.891017C6.81853 0.804776 6.90593 0.75 7.00176 0.75H10.9982C11.0941 0.75 11.1815 0.804776 11.2232 0.891017L11.4238 1.30502C11.7189 1.91436 12.3391 2.29878 13.0161 2.29206L16.2475 2.25999C16.3865 2.25861 16.5 2.37093 16.5 2.50997V11C16.5 11.1381 16.3881 11.25 16.25 11.25Z" stroke="#F2F2F2" stroke-width="1.5" stroke-linecap="round"/>
<path d="M12 6.375C12 8.03185 10.6569 9.375 9 9.375C7.34315 9.375 6 8.03185 6 6.375C6 4.71815 7.34315 3.375 9 3.375C10.6569 3.375 12 4.71815 12 6.375Z" stroke="#F2F2F2" stroke-width="1.5"/>
</svg>
